# xmcd
#
# Track frame offsets: 
#        150
#        48917
#        75662
#        111975
#        172050
#        210767
#        252825
#        260775
#
# Disc length: 3687 seconds
#
# Revision: 3
# Processed by: cddbd v1.5.2PL0 Copyright (c) Steve Scherf et al.
# Submitted via: ExactAudioCopy v1.3
#
DISCID=680e6508
DTITLE=Wolfgang Amadeus Mozart - Späte Klavierkonzerte
DYEAR=1900
DGENRE=Classical
TTITLE0=Piano Concerto Nr.23 A-Dur KV 488, Allegro
TTITLE1=Piano Concerto Nr.23 A-Dur KV 488 Adagio
TTITLE2=Piano Concerto Nr.23 A-Dur KV 488 Allegro Assai
TTITLE3=Piano Concerto Nr.27 B-Dur KV 595, Allegro
TTITLE4=Piano Concerto Nr.27 B-Dur KV 595, Larghetto
TTITLE5=Piano Concerto Nr.27 B-Dur KV 595 , Allegro
TTITLE6=Marche Funebre c-Moll KV 453A
TTITLE7=Rondo Alla Turca A-Dur KV 331
EXTD=
EXTT0=
EXTT1=
EXTT2=
EXTT3=
EXTT4=
EXTT5=
EXTT6=
EXTT7=
PLAYORDER=
